<svg width="744" height="190" viewBox="0 0 744 190" fill="none" xmlns="http://www.w3.org/2000/svg" xmlns:xlink="http://www.w3.org/1999/xlink">
<g filter="url(#filter28_2)">
<path d="M4,6L4,1L-1,1L-1,6L4,6ZM738,6L743,6L743,1L738,1L738,6ZM738,184L738,189L743,189L743,184L738,184ZM4,184L-1,184L-1,189L4,189L4,184ZM4,11L738,11L738,1L4,1L4,11ZM733,6L733,184L743,184L743,6L733,6ZM738,179L4,179L4,189L738,189L738,179ZM9,184L9,6L-1,6L-1,184L9,184Z" fill="#FFFFFF"/>
</g>
<defs>
<filter id="filter28_2" x="-51" y="-49" width="477" height="199" filterUnits="userSpaceOnUse" color-interpolation-filters="sRGB">
<feFlood flood-opacity="0" result="BackgroundImageFix"/>
<feBlend mode="normal" in="SourceGraphic" in2="BackgroundImageFix" result="shape"/>
<feGaussianBlur stdDeviation="27.5" result="0foregroundblur"/>
</filter>
</defs>
</svg>
